<?xml version="1.0" encoding="utf-8"?>
<!-- Generator: Adobe Illustrator 16.0.0, SVG Export Plug-In . SVG Version: 6.00 Build 0)  -->
<!DOCTYPE svg PUBLIC "-//W3C//DTD SVG 1.1//EN" "http://www.w3.org/Graphics/SVG/1.1/DTD/svg11.dtd">
<svg version="1.1" id="Capa_1" xmlns="http://www.w3.org/2000/svg" xmlns:xlink="http://www.w3.org/1999/xlink" x="0px" y="0px"
	 width="27.37px" height="16.57px" viewBox="0 0 27.37 16.57" enable-background="new 0 0 27.37 16.57" xml:space="preserve">
<g>
	<path fill="#C54953" d="M3.093,5.47H2.221c-0.067,0-0.124,0.023-0.17,0.07C2.003,5.586,1.98,5.644,1.98,5.71V7.2
		c0,0.067-0.023,0.124-0.069,0.17C1.864,7.417,1.808,7.44,1.742,7.44H0.239c-0.066,0-0.123-0.023-0.169-0.07
		C0.023,7.323,0,7.267,0,7.2V0.36c0-0.066,0.023-0.123,0.07-0.17c0.046-0.046,0.103-0.07,0.17-0.07H3.3
		c0.373,0,0.725,0.07,1.055,0.21c0.33,0.14,0.617,0.333,0.86,0.58c0.243,0.247,0.437,0.533,0.58,0.86
		C5.938,2.097,6.01,2.447,6.01,2.82c0,0.374-0.06,0.722-0.181,1.045c-0.12,0.324-0.302,0.604-0.546,0.84
		C5.04,4.942,4.735,5.128,4.371,5.265S3.581,5.47,3.093,5.47z M3.166,1.96H2.222c-0.067,0-0.125,0.023-0.171,0.07
		S1.98,2.132,1.98,2.199v1.173c0,0.066,0.023,0.123,0.07,0.169S2.154,3.61,2.222,3.61h1.075c0.255,0,0.441-0.081,0.558-0.243
		C3.972,3.204,4.03,3.02,4.03,2.815c0-0.106-0.019-0.21-0.055-0.313C3.938,2.399,3.883,2.308,3.809,2.229S3.645,2.084,3.538,2.035
		C3.431,1.985,3.307,1.96,3.166,1.96z"/>
	<path fill="#DA9453" d="M9.111,7.44H7.609c-0.073,0-0.131-0.023-0.174-0.07C7.392,7.323,7.37,7.267,7.37,7.2V0.37
		c0-0.067,0.021-0.124,0.064-0.17c0.043-0.046,0.101-0.07,0.174-0.07h1.502c0.066,0,0.123,0.023,0.169,0.07
		c0.046,0.047,0.07,0.104,0.07,0.17V7.2c0,0.067-0.023,0.124-0.07,0.17C9.234,7.417,9.178,7.44,9.111,7.44z"/>
	<path fill="#3BA1B0" d="M18.07,0.36V7.2c0,0.067-0.023,0.124-0.07,0.17c-0.046,0.046-0.103,0.07-0.169,0.07h-1.477
		c-0.067,0-0.137-0.02-0.209-0.06c-0.073-0.04-0.13-0.086-0.17-0.14L13.37,3.57c-0.04-0.053-0.082-0.075-0.125-0.065
		c-0.043,0.01-0.065,0.048-0.065,0.115V7.2c0,0.067-0.023,0.124-0.07,0.17c-0.047,0.046-0.104,0.07-0.171,0.07h-1.498
		c-0.067,0-0.124-0.023-0.171-0.07C11.223,7.323,11.2,7.267,11.2,7.2V0.36c0-0.066,0.023-0.123,0.07-0.17
		c0.046-0.046,0.103-0.07,0.17-0.07h1.5c0.066,0,0.137,0.018,0.21,0.055s0.13,0.082,0.17,0.135l2.6,3.67
		c0.04,0.053,0.082,0.077,0.125,0.07c0.043-0.006,0.065-0.043,0.065-0.11V0.36c0-0.066,0.023-0.123,0.07-0.17
		c0.047-0.046,0.104-0.07,0.17-0.07h1.48c0.066,0,0.123,0.023,0.17,0.07C18.046,0.237,18.07,0.293,18.07,0.36z"/>
	<path fill="#C54953" d="M23.59,7.57c-0.534,0-1.034-0.1-1.5-0.3c-0.467-0.2-0.875-0.47-1.225-0.81s-0.626-0.74-0.83-1.2
		C19.832,4.8,19.73,4.31,19.73,3.79s0.102-1.01,0.305-1.47c0.204-0.46,0.48-0.861,0.83-1.205C21.215,0.771,21.623,0.5,22.09,0.3
		c0.466-0.2,0.966-0.3,1.5-0.3c0.733,0,1.372,0.15,1.915,0.45c0.543,0.3,0.985,0.714,1.325,1.24
		c0.034,0.053,0.042,0.115,0.025,0.185c-0.017,0.07-0.052,0.122-0.105,0.155l-1.2,0.77c-0.053,0.034-0.113,0.045-0.18,0.035
		c-0.066-0.01-0.123-0.042-0.17-0.095c-0.207-0.253-0.438-0.457-0.695-0.61C24.248,1.977,23.943,1.9,23.59,1.9
		c-0.253,0-0.492,0.052-0.715,0.155c-0.224,0.103-0.418,0.242-0.585,0.415c-0.167,0.174-0.298,0.375-0.395,0.605
		c-0.097,0.23-0.145,0.469-0.145,0.715c0,0.253,0.048,0.493,0.145,0.72c0.096,0.227,0.228,0.425,0.395,0.595
		c0.167,0.17,0.362,0.307,0.585,0.41c0.223,0.103,0.461,0.155,0.715,0.155s0.503-0.046,0.75-0.14c0.247-0.093,0.443-0.247,0.59-0.46
		c0.033-0.053,0.037-0.102,0.01-0.145C24.913,4.882,24.866,4.86,24.8,4.86h-1.15c-0.067,0-0.124-0.023-0.17-0.07
		c-0.047-0.047-0.07-0.104-0.07-0.17V3.43c0-0.067,0.023-0.124,0.07-0.17c0.046-0.046,0.103-0.07,0.17-0.07h3.44
		c0.066,0,0.125,0.021,0.175,0.065c0.05,0.043,0.079,0.102,0.085,0.175c0.014,0.113,0.02,0.251,0.02,0.415
		c0,0.164-0.01,0.332-0.03,0.505c-0.047,0.46-0.177,0.887-0.39,1.28c-0.213,0.394-0.488,0.733-0.825,1.02
		c-0.337,0.287-0.722,0.512-1.155,0.675C24.536,7.488,24.076,7.57,23.59,7.57z"/>
	<path fill="#FFFFFF" d="M3.093,14.47H2.221c-0.067,0-0.124,0.023-0.17,0.07c-0.047,0.046-0.07,0.104-0.07,0.17v1.489
		c0,0.067-0.023,0.124-0.069,0.171c-0.046,0.046-0.103,0.069-0.169,0.069H0.239c-0.066,0-0.123-0.023-0.169-0.069
		C0.023,16.323,0,16.267,0,16.199V9.36c0-0.066,0.023-0.123,0.07-0.17c0.046-0.046,0.103-0.07,0.17-0.07H3.3
		c0.373,0,0.725,0.07,1.055,0.21c0.33,0.14,0.617,0.333,0.86,0.58c0.243,0.247,0.437,0.533,0.58,0.86
		c0.143,0.327,0.215,0.677,0.215,1.05c0,0.374-0.06,0.721-0.181,1.045c-0.12,0.323-0.302,0.604-0.546,0.84
		c-0.244,0.236-0.548,0.424-0.912,0.561S3.581,14.47,3.093,14.47z M3.166,10.96H2.222c-0.067,0-0.125,0.023-0.171,0.07
		s-0.07,0.103-0.07,0.169v1.172c0,0.066,0.023,0.123,0.07,0.17c0.047,0.046,0.104,0.068,0.171,0.068h1.075
		c0.255,0,0.441-0.08,0.558-0.242c0.117-0.163,0.176-0.347,0.176-0.552c0-0.106-0.019-0.21-0.055-0.313
		c-0.037-0.103-0.092-0.193-0.166-0.273s-0.164-0.145-0.271-0.194C3.431,10.985,3.307,10.96,3.166,10.96z"/>
	<path fill="#FFFFFF" d="M9.111,16.439H7.609c-0.073,0-0.131-0.023-0.174-0.069c-0.043-0.047-0.064-0.104-0.064-0.171V9.37
		c0-0.067,0.021-0.124,0.064-0.17c0.043-0.046,0.101-0.07,0.174-0.07h1.502c0.066,0,0.123,0.023,0.169,0.07
		c0.046,0.047,0.07,0.104,0.07,0.17v6.829c0,0.067-0.023,0.124-0.07,0.171C9.234,16.416,9.178,16.439,9.111,16.439z"/>
	<path fill="#FFFFFF" d="M18.07,9.36v6.839c0,0.067-0.023,0.124-0.07,0.171c-0.046,0.046-0.103,0.069-0.169,0.069h-1.477
		c-0.067,0-0.137-0.02-0.209-0.06c-0.073-0.04-0.13-0.087-0.17-0.14l-2.604-3.67c-0.04-0.054-0.082-0.075-0.125-0.065
		c-0.043,0.011-0.065,0.048-0.065,0.115v3.579c0,0.067-0.023,0.124-0.07,0.171c-0.047,0.046-0.104,0.069-0.171,0.069h-1.498
		c-0.067,0-0.124-0.023-0.171-0.069c-0.047-0.047-0.07-0.104-0.07-0.171V9.36c0-0.066,0.023-0.123,0.07-0.17
		c0.046-0.046,0.103-0.07,0.17-0.07h1.5c0.066,0,0.137,0.018,0.21,0.055s0.13,0.082,0.17,0.135l2.6,3.67
		c0.04,0.053,0.082,0.076,0.125,0.069s0.065-0.043,0.065-0.11V9.36c0-0.066,0.023-0.123,0.07-0.17c0.047-0.046,0.104-0.07,0.17-0.07
		h1.48c0.066,0,0.123,0.023,0.17,0.07C18.046,9.237,18.07,9.293,18.07,9.36z"/>
	<path fill="#FFFFFF" d="M23.59,16.57c-0.534,0-1.034-0.101-1.5-0.301c-0.467-0.199-0.875-0.47-1.225-0.81s-0.626-0.74-0.83-1.2
		c-0.203-0.46-0.305-0.949-0.305-1.47s0.102-1.01,0.305-1.47c0.204-0.46,0.48-0.861,0.83-1.205C21.215,9.771,21.623,9.5,22.09,9.3
		c0.466-0.2,0.966-0.3,1.5-0.3c0.733,0,1.372,0.15,1.915,0.45c0.543,0.3,0.985,0.714,1.325,1.24
		c0.034,0.053,0.042,0.115,0.025,0.185c-0.017,0.07-0.052,0.122-0.105,0.155l-1.2,0.77c-0.053,0.034-0.113,0.045-0.18,0.035
		c-0.066-0.01-0.123-0.042-0.17-0.095c-0.207-0.253-0.438-0.457-0.695-0.61c-0.257-0.153-0.562-0.23-0.915-0.23
		c-0.253,0-0.492,0.052-0.715,0.155c-0.224,0.103-0.418,0.242-0.585,0.415c-0.167,0.174-0.298,0.375-0.395,0.605
		c-0.097,0.23-0.145,0.468-0.145,0.715c0,0.253,0.048,0.493,0.145,0.72c0.096,0.227,0.228,0.426,0.395,0.596
		c0.167,0.17,0.362,0.307,0.585,0.41c0.223,0.103,0.461,0.154,0.715,0.154s0.503-0.047,0.75-0.141
		c0.247-0.093,0.443-0.246,0.59-0.459c0.033-0.054,0.037-0.102,0.01-0.146c-0.027-0.043-0.074-0.065-0.14-0.065h-1.15
		c-0.067,0-0.124-0.023-0.17-0.069c-0.047-0.047-0.07-0.104-0.07-0.17v-1.19c0-0.066,0.023-0.123,0.07-0.17
		c0.046-0.046,0.103-0.07,0.17-0.07h3.44c0.066,0,0.125,0.021,0.175,0.065c0.05,0.044,0.079,0.102,0.085,0.175
		c0.014,0.113,0.02,0.252,0.02,0.415s-0.01,0.332-0.03,0.505c-0.047,0.461-0.177,0.887-0.39,1.28s-0.488,0.733-0.825,1.021
		c-0.337,0.286-0.722,0.512-1.155,0.674C24.536,16.488,24.076,16.57,23.59,16.57z"/>
</g>
</svg>
