<?xml version="1.0" encoding="utf-8"?>
<!-- Generator: Adobe Illustrator 16.0.0, SVG Export Plug-In . SVG Version: 6.00 Build 0)  -->
<!DOCTYPE svg PUBLIC "-//W3C//DTD SVG 1.1//EN" "http://www.w3.org/Graphics/SVG/1.1/DTD/svg11.dtd">
<svg version="1.1" id="Capa_1" xmlns="http://www.w3.org/2000/svg" xmlns:xlink="http://www.w3.org/1999/xlink" x="0px" y="0px"
	 width="60.269px" height="7.57px" viewBox="0 0 60.269 7.57" enable-background="new 0 0 60.269 7.57" xml:space="preserve">
<g>
	<path fill="#C54953" d="M3.093,5.47H2.221c-0.067,0-0.124,0.023-0.17,0.07C2.003,5.586,1.98,5.644,1.98,5.71V7.2
		c0,0.067-0.023,0.124-0.069,0.17C1.864,7.417,1.808,7.44,1.742,7.44H0.239c-0.066,0-0.123-0.023-0.169-0.07
		C0.023,7.323,0,7.267,0,7.2V0.36c0-0.066,0.023-0.123,0.07-0.17c0.046-0.046,0.103-0.07,0.17-0.07H3.3
		c0.373,0,0.725,0.07,1.055,0.21c0.33,0.14,0.617,0.333,0.86,0.58c0.243,0.247,0.437,0.533,0.58,0.86
		C5.938,2.097,6.01,2.447,6.01,2.82c0,0.374-0.06,0.722-0.181,1.045c-0.12,0.324-0.302,0.604-0.546,0.84
		C5.04,4.942,4.735,5.128,4.371,5.265S3.581,5.47,3.093,5.47z M3.166,1.96H2.222c-0.067,0-0.125,0.023-0.171,0.07
		S1.98,2.132,1.98,2.199v1.173c0,0.066,0.023,0.123,0.07,0.169S2.154,3.61,2.222,3.61h1.075c0.255,0,0.441-0.081,0.558-0.243
		C3.972,3.204,4.03,3.02,4.03,2.815c0-0.106-0.019-0.21-0.055-0.313C3.938,2.399,3.883,2.308,3.809,2.229S3.645,2.084,3.538,2.035
		C3.431,1.985,3.307,1.96,3.166,1.96z"/>
	<path fill="#DA9453" d="M9.111,7.44H7.609c-0.073,0-0.131-0.023-0.174-0.07C7.392,7.323,7.37,7.267,7.37,7.2V0.37
		c0-0.067,0.021-0.124,0.064-0.17c0.043-0.046,0.101-0.07,0.174-0.07h1.502c0.066,0,0.123,0.023,0.169,0.07
		c0.046,0.047,0.07,0.104,0.07,0.17V7.2c0,0.067-0.023,0.124-0.07,0.17C9.234,7.417,9.178,7.44,9.111,7.44z"/>
	<path fill="#3BA1B0" d="M18.07,0.36V7.2c0,0.067-0.023,0.124-0.07,0.17c-0.046,0.046-0.103,0.07-0.169,0.07h-1.477
		c-0.067,0-0.137-0.02-0.209-0.06c-0.073-0.04-0.13-0.086-0.17-0.14L13.37,3.57c-0.04-0.053-0.082-0.075-0.125-0.065
		c-0.043,0.01-0.065,0.048-0.065,0.115V7.2c0,0.067-0.023,0.124-0.07,0.17c-0.047,0.046-0.104,0.07-0.171,0.07h-1.498
		c-0.067,0-0.124-0.023-0.171-0.07C11.223,7.323,11.2,7.267,11.2,7.2V0.36c0-0.066,0.023-0.123,0.07-0.17
		c0.046-0.046,0.103-0.07,0.17-0.07h1.5c0.066,0,0.137,0.018,0.21,0.055s0.13,0.082,0.17,0.135l2.6,3.67
		c0.04,0.053,0.082,0.077,0.125,0.07c0.043-0.006,0.065-0.043,0.065-0.11V0.36c0-0.066,0.023-0.123,0.07-0.17
		c0.047-0.046,0.104-0.07,0.17-0.07h1.48c0.066,0,0.123,0.023,0.17,0.07C18.046,0.237,18.07,0.293,18.07,0.36z"/>
	<path fill="#C54953" d="M23.59,7.57c-0.534,0-1.034-0.1-1.5-0.3c-0.467-0.2-0.875-0.47-1.225-0.81s-0.626-0.74-0.83-1.2
		C19.832,4.8,19.73,4.31,19.73,3.79s0.102-1.01,0.305-1.47c0.204-0.46,0.48-0.861,0.83-1.205C21.215,0.771,21.623,0.5,22.09,0.3
		c0.466-0.2,0.966-0.3,1.5-0.3c0.733,0,1.372,0.15,1.915,0.45c0.543,0.3,0.985,0.714,1.325,1.24
		c0.034,0.053,0.042,0.115,0.025,0.185c-0.017,0.07-0.052,0.122-0.105,0.155l-1.2,0.77c-0.053,0.034-0.113,0.045-0.18,0.035
		c-0.066-0.01-0.123-0.042-0.17-0.095c-0.207-0.253-0.438-0.457-0.695-0.61C24.248,1.977,23.943,1.9,23.59,1.9
		c-0.253,0-0.492,0.052-0.715,0.155c-0.224,0.103-0.418,0.242-0.585,0.415c-0.167,0.174-0.298,0.375-0.395,0.605
		c-0.097,0.23-0.145,0.469-0.145,0.715c0,0.253,0.048,0.493,0.145,0.72c0.096,0.227,0.228,0.425,0.395,0.595
		c0.167,0.17,0.362,0.307,0.585,0.41c0.223,0.103,0.461,0.155,0.715,0.155s0.503-0.046,0.75-0.14c0.247-0.093,0.443-0.247,0.59-0.46
		c0.033-0.053,0.037-0.102,0.01-0.145C24.913,4.882,24.866,4.86,24.8,4.86h-1.15c-0.067,0-0.124-0.023-0.17-0.07
		c-0.047-0.047-0.07-0.104-0.07-0.17V3.43c0-0.067,0.023-0.124,0.07-0.17c0.046-0.046,0.103-0.07,0.17-0.07h3.44
		c0.066,0,0.125,0.021,0.175,0.065c0.05,0.043,0.079,0.102,0.085,0.175c0.014,0.113,0.02,0.251,0.02,0.415
		c0,0.164-0.01,0.332-0.03,0.505c-0.047,0.46-0.177,0.887-0.39,1.28c-0.213,0.394-0.488,0.733-0.825,1.02
		c-0.337,0.287-0.722,0.512-1.155,0.675C24.536,7.488,24.076,7.57,23.59,7.57z"/>
	<path fill="#FFFFFF" d="M35.993,5.47H35.12c-0.067,0-0.124,0.023-0.17,0.07c-0.047,0.046-0.07,0.104-0.07,0.17V7.2
		c0,0.067-0.023,0.124-0.069,0.17c-0.046,0.046-0.103,0.07-0.169,0.07h-1.503c-0.066,0-0.123-0.023-0.169-0.07
		c-0.046-0.047-0.07-0.104-0.07-0.17V0.36c0-0.066,0.023-0.123,0.07-0.17c0.046-0.046,0.103-0.07,0.17-0.07h3.06
		c0.373,0,0.725,0.07,1.055,0.21c0.33,0.14,0.616,0.333,0.86,0.58c0.243,0.247,0.437,0.533,0.58,0.86
		c0.143,0.327,0.215,0.677,0.215,1.05c0,0.374-0.061,0.722-0.181,1.045c-0.12,0.324-0.302,0.604-0.546,0.84s-0.549,0.423-0.913,0.56
		C36.906,5.402,36.48,5.47,35.993,5.47z M36.065,1.96h-0.944c-0.067,0-0.125,0.023-0.171,0.07s-0.07,0.103-0.07,0.169v1.173
		c0,0.066,0.023,0.123,0.07,0.169s0.104,0.069,0.171,0.069h1.075c0.255,0,0.441-0.081,0.558-0.243
		c0.117-0.163,0.176-0.347,0.176-0.552c0-0.106-0.019-0.21-0.055-0.313c-0.037-0.103-0.092-0.193-0.166-0.273
		s-0.164-0.145-0.271-0.194C36.33,1.985,36.206,1.96,36.065,1.96z"/>
	<path fill="#FFFFFF" d="M42.011,7.44h-1.503c-0.073,0-0.131-0.023-0.175-0.07c-0.043-0.047-0.064-0.104-0.064-0.17V0.37
		c0-0.067,0.021-0.124,0.064-0.17c0.044-0.046,0.102-0.07,0.175-0.07h1.503c0.066,0,0.122,0.023,0.168,0.07
		c0.047,0.047,0.07,0.104,0.07,0.17V7.2c0,0.067-0.023,0.124-0.07,0.17C42.133,7.417,42.078,7.44,42.011,7.44z"/>
	<path fill="#FFFFFF" d="M50.969,0.36V7.2c0,0.067-0.023,0.124-0.069,0.17c-0.047,0.046-0.104,0.07-0.17,0.07h-1.477
		c-0.067,0-0.137-0.02-0.21-0.06s-0.13-0.086-0.17-0.14l-2.604-3.67c-0.04-0.053-0.082-0.075-0.125-0.065
		c-0.043,0.01-0.064,0.048-0.064,0.115V7.2c0,0.067-0.023,0.124-0.07,0.17c-0.047,0.046-0.104,0.07-0.172,0.07H44.34
		c-0.067,0-0.124-0.023-0.171-0.07c-0.047-0.047-0.07-0.104-0.07-0.17V0.36c0-0.066,0.023-0.123,0.07-0.17
		c0.047-0.046,0.104-0.07,0.17-0.07h1.5c0.066,0,0.137,0.018,0.21,0.055s0.13,0.082,0.17,0.135l2.601,3.67
		c0.039,0.053,0.081,0.077,0.125,0.07c0.043-0.006,0.064-0.043,0.064-0.11V0.36c0-0.066,0.023-0.123,0.07-0.17
		c0.047-0.046,0.104-0.07,0.17-0.07h1.48c0.066,0,0.123,0.023,0.17,0.07C50.946,0.237,50.969,0.293,50.969,0.36z"/>
	<path fill="#FFFFFF" d="M56.49,7.57c-0.533,0-1.033-0.1-1.5-0.3c-0.467-0.2-0.875-0.47-1.226-0.81s-0.626-0.74-0.83-1.2
		c-0.203-0.46-0.305-0.95-0.305-1.47s0.102-1.01,0.305-1.47c0.204-0.46,0.479-0.861,0.83-1.205C54.115,0.771,54.523,0.5,54.99,0.3
		c0.467-0.2,0.967-0.3,1.5-0.3c0.732,0,1.371,0.15,1.914,0.45c0.545,0.3,0.986,0.714,1.326,1.24
		c0.033,0.053,0.041,0.115,0.025,0.185c-0.018,0.07-0.053,0.122-0.105,0.155L58.449,2.8c-0.053,0.034-0.113,0.045-0.18,0.035
		c-0.066-0.01-0.123-0.042-0.17-0.095c-0.207-0.253-0.438-0.457-0.695-0.61C57.148,1.977,56.843,1.9,56.49,1.9
		c-0.254,0-0.492,0.052-0.715,0.155c-0.225,0.103-0.418,0.242-0.586,0.415c-0.166,0.174-0.297,0.375-0.395,0.605
		c-0.096,0.23-0.145,0.469-0.145,0.715c0,0.253,0.049,0.493,0.145,0.72c0.098,0.227,0.229,0.425,0.395,0.595
		c0.168,0.17,0.361,0.307,0.586,0.41c0.223,0.103,0.461,0.155,0.715,0.155s0.504-0.046,0.75-0.14c0.246-0.093,0.443-0.247,0.59-0.46
		c0.033-0.053,0.037-0.102,0.01-0.145c-0.027-0.043-0.072-0.065-0.141-0.065H56.55c-0.066,0-0.125-0.023-0.17-0.07
		c-0.047-0.047-0.07-0.104-0.07-0.17V3.43c0-0.067,0.023-0.124,0.07-0.17c0.045-0.046,0.104-0.07,0.17-0.07h3.439
		c0.066,0,0.125,0.021,0.176,0.065c0.049,0.043,0.078,0.102,0.084,0.175c0.014,0.113,0.02,0.251,0.02,0.415
		c0,0.164-0.01,0.332-0.029,0.505c-0.047,0.46-0.178,0.887-0.391,1.28c-0.213,0.394-0.488,0.733-0.824,1.02
		c-0.338,0.287-0.723,0.512-1.154,0.675C57.437,7.488,56.976,7.57,56.49,7.57z"/>
</g>
</svg>
