<svg xmlns="http://www.w3.org/2000/svg" xmlns:xlink="http://www.w3.org/1999/xlink" width="22" height="25" viewBox="0 0 22 25">
    <defs>
        <path id="b" d="M375 618H0v49h375z"/>
        <filter id="a" width="103.5%" height="126.5%" x="-1.7%" y="-11.2%" filterUnits="objectBoundingBox">
            <feOffset dy="1" in="SourceAlpha" result="shadowOffsetOuter1"/>
            <feGaussianBlur in="shadowOffsetOuter1" result="shadowBlurOuter1" stdDeviation="2"/>
            <feColorMatrix in="shadowBlurOuter1" values="0 0 0 0 0 0 0 0 0 0 0 0 0 0 0 0 0 0 0.1 0"/>
        </filter>
        <filter id="c" width="102.3%" height="117.3%" x="-1.1%" y="-6.6%" filterUnits="objectBoundingBox">
            <feOffset dy=".5" in="SourceAlpha" result="shadowOffsetInner1"/>
            <feComposite in="shadowOffsetInner1" in2="SourceAlpha" k2="-1" k3="1" operator="arithmetic" result="shadowInnerInner1"/>
            <feColorMatrix in="shadowInnerInner1" values="0 0 0 0 0 0 0 0 0 0 0 0 0 0 0 0 0 0 0.1 0"/>
        </filter>
    </defs>
    <g fill="none" fill-rule="evenodd">
        <path fill="#FEFEFE" d="M-36-625h375V42H-36z"/>
        <g transform="translate(-36 -625)">
            <use fill="#000" filter="url(#a)" xlink:href="#b"/>
            <use fill="#FFF" xlink:href="#b"/>
            <use fill="#000" filter="url(#c)" xlink:href="#b"/>
        </g>
        <g fill-rule="nonzero">
            <path fill="#007DBB" d="M19.608 24.32c-.784-1.24-.784-2.68.04-4.4 0 0 0-.04.038-.08v-.12c0-.08 0-.16-.078-.2-.079-.12-.196-.2-.314-.2H3.098c-1.53 0-2.784 1.28-2.784 2.84 0 1.56 1.255 2.84 2.784 2.84h16.235c.196 0 .392-.16.392-.4 0-.12-.039-.2-.117-.28zm-.98-.12H3.097c-.98 0-1.804-.72-1.96-1.68-.04-.12-.04-.24-.04-.36 0-1.12.902-2.04 2-2.04h15.608c0 .04-.04.08-.04.08-.548 1.52-.588 2.84-.039 4z"/>
            <path fill="#D1D1D1" d="M19.608 24.32c-.784-1.24-.784-2.68.04-4.4 0 0 0-.04.038-.08v-.12c0-.08 0-.16-.078-.2-.079-.12-.196-.2-.314-.2H3.098c-1.53 0-2.784 1.28-2.784 2.84 0 1.56 1.255 2.84 2.784 2.84h16.235c.196 0 .392-.16.392-.4 0-.12-.039-.2-.117-.28zm-.98-.12H3.097c-.98 0-1.804-.72-1.96-1.68-.04-.12-.04-.24-.04-.36 0-1.12.902-2.04 2-2.04h15.608c0 .04-.04.08-.04.08-.548 1.52-.588 2.84-.039 4z"/>
            <g fill="#D1D1D1">
                <path d="M.314 3.962V19.73a3.56 3.56 0 0 1 2.784-1.308h1.373V0h-.118C2.118 0 .313 1.77.313 3.962zM19.333 0H5.255v18.423h14.04c.117 0 .274.039.391.077V.385C19.726.154 19.53 0 19.333 0zm-9.45 6.077c0-1 .784-1.615 1.803-1.692v-.423h.51v.423c.588.038 1.177.269 1.726.615l-.55.77a2.662 2.662 0 0 0-1.176-.5v1.576h.04c1.097.27 1.842.654 1.842 1.73 0 1.04-.823 1.655-1.882 1.693v.616h-.51v-.616c-.745-.077-1.411-.384-2.039-.923l.588-.73c.47.422.941.653 1.412.73V7.731c-1.059-.231-1.765-.577-1.765-1.654zm5.058 10.5H7.608c-.235 0-.392-.154-.392-.385 0-.23.157-.384.392-.384h7.372c.236 0 .393.154.393.384-.04.193-.197.385-.432.385zm1.177-2.039h-8.51c-.235 0-.392-.153-.392-.384 0-.23.157-.385.392-.385h8.51c.235 0 .392.154.392.385 0 .23-.157.384-.392.384z"/>
                <path d="M11.686 5.308c-.549.038-.784.346-.784.692 0 .462.314.615.784.77V5.307zM13.059 8.692c0-.461-.353-.615-.863-.769v1.5c.47-.038.863-.27.863-.73z"/>
            </g>
            <path fill="#D1D1D1" d="M21.98 4.574c0 .256-.162.426-.404.426H20V1h1.576a.42.42 0 0 1 .363.213c.081.127.081.298 0 .425L21.253 3l.686 1.32c0 .084.04.17.04.254z"/>
        </g>
    </g>
</svg>
