<?xml version="1.0" encoding="utf-8"?>
<!-- Generator: Adobe Illustrator 16.0.0, SVG Export Plug-In . SVG Version: 6.00 Build 0)  -->
<!DOCTYPE svg PUBLIC "-//W3C//DTD SVG 1.1//EN" "http://www.w3.org/Graphics/SVG/1.1/DTD/svg11.dtd">
<svg version="1.1" id="Capa_1" xmlns="http://www.w3.org/2000/svg" xmlns:xlink="http://www.w3.org/1999/xlink" x="0px" y="0px"
	 width="22px" height="25px" viewBox="0 0 22 25" enable-background="new 0 0 22 25" xml:space="preserve">
<path fill="#007DBB" d="M19.607,24.32c-0.783-1.24-0.783-2.68,0.041-4.4c0,0,0-0.04,0.037-0.08v-0.119c0-0.08,0-0.16-0.078-0.201
	c-0.078-0.119-0.195-0.199-0.313-0.199H3.098c-1.53,0-2.784,1.279-2.784,2.84S1.569,25,3.098,25h16.235
	c0.196,0,0.392-0.16,0.392-0.4C19.725,24.48,19.686,24.4,19.607,24.32z M18.628,24.2H3.097c-0.98,0-1.804-0.72-1.96-1.681
	c-0.04-0.119-0.04-0.24-0.04-0.359c0-1.12,0.902-2.04,2-2.04h15.608c0,0.04-0.04,0.08-0.04,0.08c-0.548,1.521-0.588,2.84-0.039,4
	H18.628z"/>
<g>
	<path fill="#007DBB" d="M0.314,3.962V19.73c0.682-0.836,1.706-1.316,2.784-1.309h1.373V0H4.353C2.118,0,0.313,1.77,0.314,3.962
		L0.314,3.962z M19.333,0H5.255v18.423h14.04c0.117,0,0.273,0.039,0.391,0.077V0.385C19.727,0.154,19.529,0,19.333,0z M9.883,6.077
		c0-1,0.784-1.615,1.803-1.692V3.962h0.51v0.423C12.784,4.423,13.373,4.654,13.922,5l-0.55,0.77c-0.346-0.26-0.749-0.431-1.177-0.5
		v1.576h0.041c1.097,0.27,1.842,0.654,1.842,1.73c0,1.04-0.823,1.655-1.883,1.693v0.616h-0.51v-0.616
		c-0.745-0.077-1.411-0.384-2.039-0.923l0.588-0.73c0.47,0.422,0.941,0.653,1.412,0.73V7.731C10.588,7.5,9.882,7.154,9.883,6.077
		L9.883,6.077z M14.941,16.577H7.608c-0.235,0-0.392-0.154-0.392-0.386c0-0.229,0.157-0.383,0.392-0.383h7.373
		c0.235,0,0.393,0.153,0.393,0.383C15.333,16.385,15.176,16.577,14.941,16.577z M16.118,14.538h-8.51
		c-0.235,0-0.392-0.153-0.392-0.384s0.157-0.385,0.392-0.385h8.51c0.235,0,0.392,0.153,0.392,0.385
		C16.51,14.384,16.354,14.538,16.118,14.538z"/>
	<path fill="#007DBB" d="M11.686,5.308C11.137,5.346,10.902,5.654,10.902,6c0,0.462,0.314,0.615,0.784,0.77V5.308L11.686,5.308z
		 M13.059,8.692c0-0.461-0.353-0.615-0.863-0.769v1.5C12.666,9.385,13.059,9.153,13.059,8.692L13.059,8.692z"/>
</g>
<path fill="#007DBB" d="M21.98,4.574C21.98,4.83,21.818,5,21.576,5H20V1h1.576c0.15,0.001,0.289,0.082,0.363,0.213
	c0.08,0.127,0.08,0.298,0,0.425L21.253,3l0.687,1.32c0,0.084,0.039,0.17,0.039,0.254H21.98z"/>
</svg>
