<?xml version="1.0" encoding="utf-8"?>
<!-- Generator: Adobe Illustrator 16.0.0, SVG Export Plug-In . SVG Version: 6.00 Build 0)  -->
<!DOCTYPE svg PUBLIC "-//W3C//DTD SVG 1.1//EN" "http://www.w3.org/Graphics/SVG/1.1/DTD/svg11.dtd">
<svg version="1.1" id="Capa_1" xmlns="http://www.w3.org/2000/svg" xmlns:xlink="http://www.w3.org/1999/xlink" x="0px" y="0px"
	 width="18px" height="25px" viewBox="0 0 18 25" enable-background="new 0 0 18 25" xml:space="preserve">
<path fill="#007DBB" d="M10.5,6.861l1.833,0.306c0.64,0.11,0.89,0.889,0.417,1.333l-1.361,1.278l0.278,1.833
	c0.11,0.639-0.584,1.111-1.14,0.806l-1.638-0.89l-1.667,0.834c-0.383,0.192-0.849,0.038-1.041-0.345
	c-0.076-0.151-0.1-0.322-0.07-0.488l0.332-1.834L5.14,8.39c-0.3-0.302-0.298-0.79,0.003-1.089c0.119-0.119,0.274-0.195,0.44-0.217
	l1.834-0.25l0.86-1.666c0.19-0.38,0.653-0.534,1.033-0.344c0.158,0.079,0.285,0.21,0.357,0.371L10.5,6.861L10.5,6.861z M17.693,21.5
	c0.168,0.361,0.113,0.777-0.137,1.083s-0.641,0.444-1.029,0.36l-2.305-0.526l-1.14,2.056c-0.187,0.329-0.537,0.531-0.916,0.527
	h-0.056c-0.389-0.027-0.75-0.25-0.889-0.611L8.89,19.193l-2.334,5.197c-0.167,0.36-0.5,0.582-0.89,0.61H5.611
	c-0.361,0-0.722-0.194-0.917-0.528l-1.138-2.055l-2.278,0.527c-0.383,0.084-0.781-0.055-1.028-0.36
	c-0.251-0.305-0.306-0.727-0.139-1.085l2.722-6.083C1.026,13.738,0,11.383,0,8.917C0.028,4,4.028,0,8.944,0
	c4.917,0,8.917,4,8.917,8.917c-0.002,2.493-1.051,4.872-2.889,6.556L17.693,21.5z M8.944,15.5c3.634,0.002,6.582-2.942,6.583-6.576
	c0-0.002,0-0.004,0-0.007c0.003-3.634-2.941-6.582-6.575-6.584c-0.003,0-0.005,0-0.008,0C5.31,2.332,2.363,5.276,2.361,8.91
	c0,0.002,0,0.004,0,0.007c-0.001,3.634,2.943,6.581,6.577,6.583C8.94,15.5,8.942,15.5,8.944,15.5z"/>
</svg>
