<?xml version="1.0" encoding="utf-8"?>
<!-- Generator: Adobe Illustrator 16.0.0, SVG Export Plug-In . SVG Version: 6.00 Build 0)  -->
<!DOCTYPE svg PUBLIC "-//W3C//DTD SVG 1.1//EN" "http://www.w3.org/Graphics/SVG/1.1/DTD/svg11.dtd">
<svg version="1.1" id="Capa_1" xmlns="http://www.w3.org/2000/svg" xmlns:xlink="http://www.w3.org/1999/xlink" x="0px" y="0px"
	 width="44px" height="54px" viewBox="0 0 44 54" enable-background="new 0 0 44 54" xml:space="preserve">
<g>
	<path fill="#FB9F00" d="M11.716,46c-0.569,0-1.029-0.462-1.029-1.031c0,0,0-0.001,0-0.002V27.393H5.028
		C4.459,27.392,3.999,26.93,4,26.361c0,0,0,0,0-0.001c0-0.571,0.46-1.033,1.028-1.033h5.66V0h13.298
		C24.139,0.003,37,0.434,37,13.696c0,13.262-12.863,13.694-12.992,13.696H12.744v17.575C12.744,45.537,12.284,46,11.716,46z
		 M12.744,25.327h11.242c0.424-0.011,10.957-0.41,10.957-11.631c0-11.264-10.531-11.62-10.98-11.63h-11.22L12.744,25.327
		L12.744,25.327z"/>
	<path fill="#FB9F00" d="M18.716,54c-0.569,0-1.029-0.462-1.029-1.031c0,0,0-0.001,0-0.002V35.393h-5.659
		c-0.569,0-1.029-0.463-1.028-1.031c0,0,0-0.001,0-0.002c0-0.57,0.46-1.032,1.028-1.032h5.66V8h13.298
		C31.139,8.003,44,8.434,44,21.696c0,13.262-12.863,13.695-12.992,13.697H19.744v17.574C19.744,53.537,19.284,54,18.716,54z
		 M19.744,33.327h11.242c0.424-0.011,10.957-0.41,10.957-11.631c0-11.264-10.531-11.62-10.98-11.63h-11.22L19.744,33.327
		L19.744,33.327z"/>
	<path fill="#FB9F00" d="M30.952,43H1.048C0.47,43,0,42.553,0,42s0.469-1,1.048-1h29.904C31.531,41,32,41.447,32,42
		S31.531,43,30.952,43z"/>
</g>
</svg>
