<?xml version="1.0" encoding="utf-8"?>
<!-- Generator: Adobe Illustrator 16.0.0, SVG Export Plug-In . SVG Version: 6.00 Build 0)  -->
<!DOCTYPE svg PUBLIC "-//W3C//DTD SVG 1.1//EN" "http://www.w3.org/Graphics/SVG/1.1/DTD/svg11.dtd">
<svg version="1.1" id="Capa_1" xmlns="http://www.w3.org/2000/svg" xmlns:xlink="http://www.w3.org/1999/xlink" x="0px" y="0px"
	 width="198px" height="75.002px" viewBox="0 -0.001 198 75.002" enable-background="new 0 -0.001 198 75.002" xml:space="preserve"
	>
<g>
	<g>
		<path fill="#BDFFD8" d="M25,43h48c2.761,0,5,2.238,5,5l0,0c0,2.762-2.239,5-5,5H25c-2.761,0-5-2.238-5-5l0,0
			C20,45.238,22.239,43,25,43z"/>
		<path fill="#BDFFD8" stroke="#979797" d="M89.5,0.5h71c20.435,0,37,16.565,37,37l0,0c0,20.435-16.565,37-37,37h-71
			c-20.435,0-37-16.565-37-37l0,0C52.5,17.065,69.065,0.5,89.5,0.5z"/>
		<path fill="#56D98B" d="M189,19.986c-0.166,0.009-0.333,0.014-0.5,0.014c-5.247,0-9.5-4.477-9.5-10H71c0,5.523-4.253,10-9.5,10
			c-0.168,0-0.334-0.005-0.5-0.014v35.028C61.166,55.004,61.332,55,61.5,55c5.247,0,9.5,4.477,9.5,10h108c0-5.523,4.253-10,9.5-10
			c0.168,0,0.334,0.005,0.5,0.014V19.986z M193.257,0.006c2.481-0.134,4.603,1.769,4.737,4.25C197.998,4.337,198,4.419,198,4.5v66
			c0,2.485-2.014,4.5-4.5,4.5c-0.08,0-0.162-0.002-0.243-0.006C193.172,74.998,193.087,75,193,75H57
			c-0.086,0-0.172-0.002-0.257-0.006c-2.482,0.135-4.603-1.77-4.737-4.25C52.002,70.662,52,70.581,52,70.5v-66
			C52,2.015,54.014,0,56.5,0c0.081,0,0.163,0.002,0.244,0.006C56.828,0.002,56.913,0,57,0h136
			C193.086,0,193.172,0.002,193.257,0.006z"/>
		<circle fill="#56D98B" cx="125.5" cy="37.5" r="17.5"/>
		<path fill="#56D98B" d="M5,23h48c2.761,0,5,2.239,5,5l0,0c0,2.761-2.239,5-5,5H5c-2.761,0-5-2.239-5-5l0,0C0,25.239,2.239,23,5,23
			z"/>
	</g>
</g>
</svg>
