<?xml version="1.0" encoding="utf-8"?>
<!-- Generator: Adobe Illustrator 16.0.0, SVG Export Plug-In . SVG Version: 6.00 Build 0)  -->
<!DOCTYPE svg PUBLIC "-//W3C//DTD SVG 1.1//EN" "http://www.w3.org/Graphics/SVG/1.1/DTD/svg11.dtd">
<svg version="1.1" id="Capa_1" xmlns="http://www.w3.org/2000/svg" xmlns:xlink="http://www.w3.org/1999/xlink" x="0px" y="0px"
	 width="26.381px" height="27.029px" viewBox="-0.034 -0.034 26.381 27.029" enable-background="new -0.034 -0.034 26.381 27.029"
	 xml:space="preserve">
<path fill="none" stroke="#007DBB" stroke-width="1.38" d="M7.475,4.066c0-1.884-1.526-3.41-3.409-3.41
	c-1.884,0-3.41,1.526-3.41,3.41c0,2.252,3.41,7.954,3.41,7.954S7.475,6.379,7.475,4.066z M25.656,17.701
	c0-1.882-1.525-3.408-3.409-3.408s-3.41,1.526-3.41,3.408c0,2.252,3.41,7.955,3.41,7.955S25.656,20.016,25.656,17.701z"/>
<path fill="none" stroke="#007DBB" stroke-width="1.38" stroke-linecap="round" d="M14.293,21.11H4.066
	c-1.254-0.004-2.269-1.019-2.273-2.272c0-1.25,1.023-2.272,2.273-2.272h3.978c0.939,0,1.704-0.764,1.704-1.705
	c0-0.94,0.763-1.704,1.704-1.704h3.977c1.25,0,2.272-1.022,2.272-2.272s-1.021-2.273-2.272-2.273h-4.545"/>
</svg>
